<?xml version="1.0" encoding="utf-8"?>
<!-- Generator: Adobe Illustrator 16.0.0, SVG Export Plug-In . SVG Version: 6.00 Build 0)  -->
<!DOCTYPE svg PUBLIC "-//W3C//DTD SVG 1.1//EN" "http://www.w3.org/Graphics/SVG/1.1/DTD/svg11.dtd">
<svg version="1.1" id="Layer_1" xmlns="http://www.w3.org/2000/svg" xmlns:xlink="http://www.w3.org/1999/xlink" x="0px" y="0px"
	 width="200px" height="60px" viewBox="0 0 200 60" enable-background="new 0 0 200 60" xml:space="preserve">
<g>
	<g>
		<rect x="27" y="29" width="144" height="4"/>
		<g>
			<path fill="#A6A6A6" d="M26.557,31c-3.5-3-6.447-6-8.732-10h16.736c2.248,4,5.748,7,9.471,10H26.557z"/>
			<path fill="#666666" d="M44.031,31c-3.758,2-7.113,5-9.471,9H17.863c2.355-4,5.193-7,8.693-9H44.031z"/>
			<path d="M35.533,21c2.25,4,5.748,7.179,9.471,9.499C41.246,32.784,37.893,36,35.533,40h-2.246c2.359-4,5.195-7.14,8.697-9.501
				C38.482,28.104,35.533,25,33.252,21H35.533z"/>
			<path d="M30.119,21c2.246,4,5.748,7.179,9.467,9.499C35.828,32.784,32.479,36,30.119,40h-2.246c2.355-4,5.193-7.14,8.693-9.501
				c-3.5-2.395-6.447-5.499-8.73-9.499H30.119z"/>
			<path d="M24.701,21c2.248,4,5.748,7.179,9.467,9.499C30.41,32.784,27.061,36,24.701,40h-2.246c2.355-4,5.193-7.14,8.693-9.501
				C27.648,28.104,24.701,25,22.416,21H24.701z"/>
			<path d="M19.285,21c2.246,4,5.746,7.179,9.467,9.499C24.992,32.784,21.643,36,19.285,40h-2.248c2.355-4,5.193-7.14,8.695-9.501
				C22.23,28.104,19.285,25,17,21H19.285z"/>
		</g>
		<g>
			<polygon points="185,30.5 165.102,38.631 169.823,30.5 165.102,22.371 			"/>
		</g>
	</g>
</g>
</svg>
