<?xml version="1.0" encoding="utf-8"?>
<!-- Generator: Adobe Illustrator 16.0.0, SVG Export Plug-In . SVG Version: 6.00 Build 0)  -->
<!DOCTYPE svg PUBLIC "-//W3C//DTD SVG 1.1//EN" "http://www.w3.org/Graphics/SVG/1.1/DTD/svg11.dtd">
<svg version="1.1" id="Layer_1" xmlns="http://www.w3.org/2000/svg" xmlns:xlink="http://www.w3.org/1999/xlink" x="0px" y="0px"
	 width="792px" height="612px" viewBox="0 0 792 612" enable-background="new 0 0 792 612" xml:space="preserve">
<rect x="32.826" y="85.608" fill="#B5E1E3" width="43.479" height="43.479"/>
<rect x="76.305" y="129.086" fill="#B5E1E3" width="43.479" height="43.479"/>
<rect x="119.783" y="85.608" fill="#B5E1E3" width="43.479" height="43.479"/>
<rect x="163.262" y="129.086" fill="#B5E1E3" width="43.479" height="43.479"/>
<rect x="32.826" y="172.565" fill="#B5E1E3" width="43.479" height="43.479"/>
<rect x="76.305" y="216.043" fill="#B5E1E3" width="43.479" height="43.479"/>
<rect x="119.783" y="172.565" fill="#B5E1E3" width="43.479" height="43.479"/>
<rect x="163.262" y="216.043" fill="#B5E1E3" width="43.479" height="43.479"/>
<rect x="206.74" y="85.608" fill="#B5E1E3" width="43.479" height="43.479"/>
<rect x="250.218" y="129.086" fill="#B5E1E3" width="43.479" height="43.479"/>
<rect x="293.697" y="85.608" fill="#B5E1E3" width="43.479" height="43.479"/>
<rect x="337.175" y="129.086" fill="#B5E1E3" width="43.479" height="43.479"/>
<rect x="206.74" y="172.565" fill="#B5E1E3" width="43.479" height="43.479"/>
<rect x="250.218" y="216.043" fill="#B5E1E3" width="43.479" height="43.479"/>
<rect x="293.697" y="172.565" fill="#B5E1E3" width="43.479" height="43.479"/>
<rect x="337.175" y="216.043" fill="#B5E1E3" width="43.479" height="43.479"/>
<rect x="32.826" y="259.522" fill="#B5E1E3" width="43.479" height="43.479"/>
<rect x="76.305" y="303.001" fill="#B5E1E3" width="43.479" height="43.479"/>
<rect x="119.783" y="259.522" fill="#B5E1E3" width="43.479" height="43.479"/>
<rect x="163.262" y="303.001" fill="#B5E1E3" width="43.479" height="43.479"/>
<rect x="32.826" y="346.479" fill="#B5E1E3" width="43.479" height="43.479"/>
<rect x="76.305" y="389.958" fill="#B5E1E3" width="43.479" height="43.479"/>
<rect x="119.783" y="346.479" fill="#B5E1E3" width="43.479" height="43.479"/>
<rect x="163.262" y="389.958" fill="#B5E1E3" width="43.479" height="43.479"/>
<rect x="206.74" y="259.522" fill="#B5E1E3" width="43.479" height="43.479"/>
<rect x="250.218" y="303.001" fill="#B5E1E3" width="43.479" height="43.479"/>
<rect x="293.697" y="259.522" fill="#B5E1E3" width="43.479" height="43.479"/>
<rect x="337.175" y="303.001" fill="#B5E1E3" width="43.479" height="43.479"/>
<rect x="206.74" y="346.479" fill="#B5E1E3" width="43.479" height="43.479"/>
<rect x="250.218" y="389.958" fill="#B5E1E3" width="43.479" height="43.479"/>
<rect x="293.697" y="346.479" fill="#B5E1E3" width="43.479" height="43.479"/>
<rect x="337.175" y="389.958" fill="#B5E1E3" width="43.479" height="43.479"/>
<rect x="380.654" y="85.608" fill="#B5E1E3" width="43.479" height="43.479"/>
<rect x="424.133" y="129.086" fill="#B5E1E3" width="43.479" height="43.479"/>
<rect x="467.611" y="85.608" fill="#B5E1E3" width="43.479" height="43.479"/>
<rect x="511.09" y="129.086" fill="#B5E1E3" width="43.479" height="43.479"/>
<rect x="380.654" y="172.565" fill="#B5E1E3" width="43.479" height="43.479"/>
<rect x="424.133" y="216.043" fill="#B5E1E3" width="43.479" height="43.479"/>
<rect x="467.611" y="172.565" fill="#B5E1E3" width="43.479" height="43.479"/>
<rect x="511.09" y="216.043" fill="#B5E1E3" width="43.479" height="43.479"/>
<rect x="554.568" y="85.608" fill="#B5E1E3" width="43.479" height="43.479"/>
<rect x="598.047" y="129.086" fill="#B5E1E3" width="43.479" height="43.479"/>
<rect x="641.525" y="85.608" fill="#B5E1E3" width="43.479" height="43.479"/>
<rect x="685.004" y="129.086" fill="#B5E1E3" width="43.479" height="43.479"/>
<rect x="554.568" y="172.565" fill="#B5E1E3" width="43.479" height="43.479"/>
<rect x="598.047" y="216.043" fill="#B5E1E3" width="43.479" height="43.479"/>
<rect x="641.525" y="172.565" fill="#B5E1E3" width="43.479" height="43.479"/>
<rect x="685.004" y="216.043" fill="#B5E1E3" width="43.479" height="43.479"/>
<rect x="380.654" y="259.522" fill="#B5E1E3" width="43.479" height="43.479"/>
<rect x="424.133" y="303.001" fill="#B5E1E3" width="43.479" height="43.479"/>
<rect x="467.611" y="259.522" fill="#B5E1E3" width="43.479" height="43.479"/>
<rect x="511.09" y="303.001" fill="#B5E1E3" width="43.479" height="43.479"/>
<rect x="380.654" y="346.479" fill="#B5E1E3" width="43.479" height="43.479"/>
<rect x="424.133" y="389.958" fill="#B5E1E3" width="43.479" height="43.479"/>
<rect x="467.611" y="346.479" fill="#B5E1E3" width="43.479" height="43.479"/>
<rect x="511.09" y="389.958" fill="#B5E1E3" width="43.479" height="43.479"/>
<rect x="554.568" y="259.522" fill="#B5E1E3" width="43.479" height="43.479"/>
<rect x="598.047" y="303.001" fill="#B5E1E3" width="43.479" height="43.479"/>
<rect x="641.525" y="259.522" fill="#B5E1E3" width="43.479" height="43.479"/>
<rect x="685.004" y="303.001" fill="#B5E1E3" width="43.479" height="43.479"/>
<rect x="554.568" y="346.479" fill="#B5E1E3" width="43.479" height="43.479"/>
<rect x="598.047" y="389.958" fill="#B5E1E3" width="43.479" height="43.479"/>
<rect x="641.525" y="346.479" fill="#B5E1E3" width="43.479" height="43.479"/>
<rect x="685.004" y="389.958" fill="#B5E1E3" width="43.479" height="43.479"/>
<path fill="#FFFFFF" stroke="#000000" stroke-miterlimit="10" d="M256.87,189.826"/>
</svg>
