<?xml version="1.0" encoding="utf-8"?>
<!-- Generator: Adobe Illustrator 16.0.0, SVG Export Plug-In . SVG Version: 6.00 Build 0)  -->
<!DOCTYPE svg PUBLIC "-//W3C//DTD SVG 1.1//EN" "http://www.w3.org/Graphics/SVG/1.1/DTD/svg11.dtd">
<svg version="1.1" id="Layer_1" xmlns="http://www.w3.org/2000/svg" xmlns:xlink="http://www.w3.org/1999/xlink" x="0px" y="0px"
	 width="695.656px" height="478.264px" viewBox="0 0 695.656 478.264" enable-background="new 0 0 695.656 478.264"
	 xml:space="preserve">
<rect fill="#B5E1E3" width="43.479" height="43.479"/>
<rect x="43.479" y="43.479" fill="#B5E1E3" width="43.479" height="43.479"/>
<rect x="86.957" fill="#B5E1E3" width="43.479" height="43.479"/>
<rect x="130.436" y="43.479" fill="#B5E1E3" width="43.479" height="43.479"/>
<rect y="86.957" fill="#B5E1E3" width="43.479" height="43.479"/>
<rect x="43.479" y="130.436" fill="#B5E1E3" width="43.479" height="43.479"/>
<rect x="86.957" y="86.957" fill="#B5E1E3" width="43.479" height="43.479"/>
<rect x="130.436" y="130.436" fill="#B5E1E3" width="43.479" height="43.479"/>
<rect x="173.914" fill="#B5E1E3" width="43.479" height="43.479"/>
<rect x="217.392" y="43.479" fill="#B5E1E3" width="43.479" height="43.479"/>
<rect x="260.871" fill="#B5E1E3" width="43.479" height="43.479"/>
<rect x="304.349" y="43.479" fill="#B5E1E3" width="43.479" height="43.479"/>
<rect x="173.914" y="86.957" fill="#B5E1E3" width="43.479" height="43.479"/>
<rect x="217.392" y="130.436" fill="#B5E1E3" width="43.479" height="43.479"/>
<rect x="260.871" y="86.957" fill="#B5E1E3" width="43.479" height="43.479"/>
<rect x="304.349" y="130.436" fill="#B5E1E3" width="43.479" height="43.479"/>
<rect y="173.915" fill="#B5E1E3" width="43.479" height="43.479"/>
<rect x="43.479" y="217.393" fill="#B5E1E3" width="43.479" height="43.479"/>
<rect x="86.957" y="173.915" fill="#B5E1E3" width="43.479" height="43.479"/>
<rect x="130.436" y="217.393" fill="#B5E1E3" width="43.479" height="43.479"/>
<rect y="260.872" fill="#B5E1E3" width="43.479" height="43.479"/>
<rect x="43.479" y="304.35" fill="#B5E1E3" width="43.479" height="43.478"/>
<rect x="86.957" y="260.872" fill="#B5E1E3" width="43.479" height="43.479"/>
<rect x="130.436" y="304.35" fill="#B5E1E3" width="43.479" height="43.478"/>
<rect x="173.914" y="173.915" fill="#B5E1E3" width="43.479" height="43.479"/>
<rect x="217.392" y="217.393" fill="#B5E1E3" width="43.479" height="43.479"/>
<rect x="260.871" y="173.915" fill="#B5E1E3" width="43.479" height="43.479"/>
<rect x="304.349" y="217.393" fill="#B5E1E3" width="43.479" height="43.479"/>
<rect x="173.914" y="260.872" fill="#B5E1E3" width="43.479" height="43.479"/>
<rect x="217.392" y="304.35" fill="#B5E1E3" width="43.479" height="43.478"/>
<rect x="260.871" y="260.872" fill="#B5E1E3" width="43.479" height="43.479"/>
<rect x="304.349" y="304.35" fill="#B5E1E3" width="43.479" height="43.478"/>
<rect x="347.828" fill="#B5E1E3" width="43.479" height="43.479"/>
<rect x="391.307" y="43.479" fill="#B5E1E3" width="43.479" height="43.479"/>
<rect x="434.785" fill="#B5E1E3" width="43.479" height="43.479"/>
<rect x="478.264" y="43.479" fill="#B5E1E3" width="43.479" height="43.479"/>
<rect x="347.828" y="86.957" fill="#B5E1E3" width="43.479" height="43.479"/>
<rect x="391.307" y="130.436" fill="#B5E1E3" width="43.479" height="43.479"/>
<rect x="434.785" y="86.957" fill="#B5E1E3" width="43.479" height="43.479"/>
<rect x="478.264" y="130.436" fill="#B5E1E3" width="43.479" height="43.479"/>
<rect x="521.742" fill="#B5E1E3" width="43.479" height="43.479"/>
<rect x="565.221" y="43.479" fill="#B5E1E3" width="43.479" height="43.479"/>
<rect x="608.699" fill="#B5E1E3" width="43.479" height="43.479"/>
<rect x="652.178" y="43.479" fill="#B5E1E3" width="43.479" height="43.479"/>
<rect x="521.742" y="86.957" fill="#B5E1E3" width="43.479" height="43.479"/>
<rect x="565.221" y="130.436" fill="#B5E1E3" width="43.479" height="43.479"/>
<rect x="608.699" y="86.957" fill="#B5E1E3" width="43.479" height="43.479"/>
<rect x="652.178" y="130.436" fill="#B5E1E3" width="43.479" height="43.479"/>
<rect x="347.828" y="173.915" fill="#B5E1E3" width="43.479" height="43.479"/>
<rect x="391.307" y="217.393" fill="#B5E1E3" width="43.479" height="43.479"/>
<rect x="434.785" y="173.915" fill="#B5E1E3" width="43.479" height="43.479"/>
<rect x="478.264" y="217.393" fill="#B5E1E3" width="43.479" height="43.479"/>
<rect x="347.828" y="260.872" fill="#B5E1E3" width="43.479" height="43.479"/>
<rect x="391.307" y="304.35" fill="#B5E1E3" width="43.479" height="43.478"/>
<rect x="434.785" y="260.872" fill="#B5E1E3" width="43.479" height="43.479"/>
<rect x="478.264" y="304.35" fill="#B5E1E3" width="43.479" height="43.478"/>
<rect x="521.742" y="173.915" fill="#B5E1E3" width="43.479" height="43.479"/>
<rect x="565.221" y="217.393" fill="#B5E1E3" width="43.479" height="43.479"/>
<rect x="608.699" y="173.915" fill="#B5E1E3" width="43.479" height="43.479"/>
<rect x="652.178" y="217.393" fill="#B5E1E3" width="43.479" height="43.479"/>
<rect x="521.742" y="260.872" fill="#B5E1E3" width="43.479" height="43.479"/>
<rect x="565.221" y="304.35" fill="#B5E1E3" width="43.479" height="43.478"/>
<rect x="608.699" y="260.872" fill="#B5E1E3" width="43.479" height="43.479"/>
<rect x="652.178" y="304.35" fill="#B5E1E3" width="43.479" height="43.478"/>
<rect y="347.828" fill="#B5E1E3" width="43.479" height="43.479"/>
<rect x="43.479" y="391.307" fill="#B5E1E3" width="43.479" height="43.479"/>
<rect x="86.957" y="347.828" fill="#B5E1E3" width="43.479" height="43.479"/>
<rect x="130.436" y="391.307" fill="#B5E1E3" width="43.479" height="43.479"/>
<rect y="434.785" fill="#B5E1E3" width="43.479" height="43.479"/>
<rect x="86.957" y="434.785" fill="#B5E1E3" width="43.479" height="43.479"/>
<rect x="173.914" y="347.828" fill="#B5E1E3" width="43.479" height="43.479"/>
<rect x="217.392" y="391.307" fill="#B5E1E3" width="43.479" height="43.479"/>
<rect x="260.871" y="347.828" fill="#B5E1E3" width="43.479" height="43.479"/>
<rect x="304.349" y="391.307" fill="#B5E1E3" width="43.479" height="43.479"/>
<rect x="173.914" y="434.785" fill="#B5E1E3" width="43.479" height="43.479"/>
<rect x="260.871" y="434.785" fill="#B5E1E3" width="43.479" height="43.479"/>
<rect x="347.828" y="347.828" fill="#B5E1E3" width="43.479" height="43.479"/>
<rect x="391.307" y="391.307" fill="#B5E1E3" width="43.479" height="43.479"/>
<rect x="434.785" y="347.828" fill="#B5E1E3" width="43.479" height="43.479"/>
<rect x="478.264" y="391.307" fill="#B5E1E3" width="43.479" height="43.479"/>
<rect x="347.828" y="434.785" fill="#B5E1E3" width="43.479" height="43.479"/>
<rect x="434.785" y="434.785" fill="#B5E1E3" width="43.479" height="43.479"/>
<rect x="521.742" y="347.828" fill="#B5E1E3" width="43.479" height="43.479"/>
<rect x="565.221" y="391.307" fill="#B5E1E3" width="43.479" height="43.479"/>
<rect x="608.699" y="347.828" fill="#B5E1E3" width="43.479" height="43.479"/>
<rect x="652.178" y="391.307" fill="#B5E1E3" width="43.479" height="43.479"/>
<rect x="521.742" y="434.785" fill="#B5E1E3" width="43.479" height="43.479"/>
<rect x="608.699" y="434.785" fill="#B5E1E3" width="43.479" height="43.479"/>
<path fill="#FFFFFF" stroke="#000000" stroke-miterlimit="10" d="M224.043,104.218"/>
</svg>
