<?xml version="1.0" encoding="utf-8"?>
<!-- Generator: Adobe Illustrator 16.0.0, SVG Export Plug-In . SVG Version: 6.00 Build 0)  -->
<!DOCTYPE svg PUBLIC "-//W3C//DTD SVG 1.1//EN" "http://www.w3.org/Graphics/SVG/1.1/DTD/svg11.dtd">
<svg version="1.1" id="Layer_1" xmlns="http://www.w3.org/2000/svg" xmlns:xlink="http://www.w3.org/1999/xlink" x="0px" y="0px"
	 width="223.876px" height="535.496px" viewBox="0 0 223.876 535.496" enable-background="new 0 0 223.876 535.496"
	 xml:space="preserve">
<polygon fill="#F1E912" points="63.5,132.5 0,58.5 63.5,0 116.5,57.75 "/>
<path fill="#E3A78F" d="M121.651,46.539c0,0,20.099,5.711,17.599,28.961l0.875-5.25c0,0,11.375,1.875,11.625,16.375
	s-5.166,47.209-4.833,50.209s-1.333,27.334,0,28.667s10.999,21.333,12.666,33s53.664,314.495,63.664,324.995s-102.56,12-102.56,12
	s-7.509-282.662-24.14-333.329c0,0-2.632-8.668-5.965-12.334s-32-35.666-32.667-41.666s-19.333-19.334-19.333-19.334
	s-8.667-12.333-7.333-21c0,0-10-14-8-17.667s17.333-1.667,28.333,15S70.118,120.5,70.118,120.5s8.201-10.334,0-34.667
	C61.917,61.5,45.583,31.167,52.917,25.5s26.596,15,43.631,58c0,0,5.202-1.5,5.202-8.25S104,57,102,51.5S97.75,32,89.25,30
	s10-10.5,20.75,2s15.25,10,13.5,44.5"/>
</svg>
