<?xml version="1.0" encoding="utf-8"?>
<!-- Generator: Adobe Illustrator 16.0.0, SVG Export Plug-In . SVG Version: 6.00 Build 0)  -->
<!DOCTYPE svg PUBLIC "-//W3C//DTD SVG 1.1//EN" "http://www.w3.org/Graphics/SVG/1.1/DTD/svg11.dtd">
<svg version="1.1" id="Layer_1" xmlns="http://www.w3.org/2000/svg" xmlns:xlink="http://www.w3.org/1999/xlink" x="0px" y="0px"
	 width="792px" height="612px" viewBox="0 0 792 612" enable-background="new 0 0 792 612" xml:space="preserve">
<polygon fill="#F1E912" points="320.253,262.004 256.753,188.004 320.253,129.504 373.253,187.254 "/>
<path fill="#E3A78F" d="M378.404,176.043c0,0,20.099,5.711,17.599,28.961l0.875-5.25c0,0,11.375,1.875,11.625,16.375
	s-5.166,47.209-4.833,50.209s-1.333,27.334,0,28.667s10.999,21.333,12.666,33s48.167,176.499,58.167,186.999s-100.5,19-100.5,19
	s-4.071-151.666-20.702-202.333c0,0-2.632-8.668-5.965-12.334s-32-35.666-32.667-41.666s-19.333-19.334-19.333-19.334
	s-8.667-12.333-7.333-21c0,0-10-14-8-17.667s17.333-1.667,28.333,15s18.534,15.334,18.534,15.334s8.201-10.334,0-34.667
	c-8.201-24.333-24.535-54.666-17.201-60.333s26.596,15,43.631,58c0,0,5.202-1.5,5.202-8.25s2.25-18.25,0.25-23.75
	s-4.25-19.5-12.75-21.5s10-10.5,20.75,2s15.25,10,13.5,44.5"/>
</svg>
