<?xml version="1.0" encoding="utf-8"?>
<!-- Generator: Adobe Illustrator 16.0.0, SVG Export Plug-In . SVG Version: 6.00 Build 0)  -->
<!DOCTYPE svg PUBLIC "-//W3C//DTD SVG 1.1//EN" "http://www.w3.org/Graphics/SVG/1.1/DTD/svg11.dtd">
<svg version="1.1" id="Layer_1" xmlns="http://www.w3.org/2000/svg" xmlns:xlink="http://www.w3.org/1999/xlink" x="0px" y="0px"
	 width="31.566px" height="25.544px" viewBox="0 0 31.566 25.544" enable-background="new 0 0 31.566 25.544" xml:space="preserve">
<path fill="#8B5E3C" d="M11.214,0.109C3.771,0.857-2.388,5.49,0.913,14.543c0.683,1.874,2.882,4.404,5.116,4.453
	c3.638,0.079,5.874-4.241,10.482-4.071c2.622,0.097,5.321,0.614,6.677,3.084c0.932,1.695,0.395,4.012,1.564,5.548
	c1.461,1.917,5.009,3.066,6.401,0.506c1.868-3.433-3.095-6.889-5.23-8.642c-1.741-1.428-6.044-0.962-4.63-4.352
	c0.933-2.225,5.328-1.42,7.139-1.663c1.201-0.161-1.474-4.387-1.916-4.813C22.913,1.123,16.713-0.444,11.214,0.109z"/>
</svg>
