<?xml version="1.0" encoding="utf-8"?>
<!-- Generator: Adobe Illustrator 16.0.0, SVG Export Plug-In . SVG Version: 6.00 Build 0)  -->
<!DOCTYPE svg PUBLIC "-//W3C//DTD SVG 1.1//EN" "http://www.w3.org/Graphics/SVG/1.1/DTD/svg11.dtd">
<svg version="1.1" id="Layer_1" xmlns="http://www.w3.org/2000/svg" xmlns:xlink="http://www.w3.org/1999/xlink" x="0px" y="0px"
	 width="22.773px" height="14.804px" viewBox="0 0 22.773 14.804" enable-background="new 0 0 22.773 14.804" xml:space="preserve">
<path fill="#8B5E3C" d="M8.609,7.951C8.356,7.799,6.474,8.309,6.047,8.294C5.073,8.261,4.065,8.057,3.167,7.669
	c-1.645-0.71-3.352-2.263-3.151-4.224c2.585-0.197,4.886-1.099,7.281-2.042c1.417-0.558,2.562-1.357,4.201-1.399
	c3.272-0.084,2.59,1.562,3.376,4.405c0.432,1.558,1.025,3.362,2.972,3.506c1.597,0.118,2.341-1.395,3.759-1.687
	c3.824,4.52-2.571,10.531-7.252,7.96C11.646,12.7,11.229,9.527,8.609,7.951z"/>
</svg>
