<?xml version="1.0" encoding="utf-8"?>
<!-- Generator: Adobe Illustrator 16.0.0, SVG Export Plug-In . SVG Version: 6.00 Build 0)  -->
<!DOCTYPE svg PUBLIC "-//W3C//DTD SVG 1.1//EN" "http://www.w3.org/Graphics/SVG/1.1/DTD/svg11.dtd">
<svg version="1.1" id="Layer_1" xmlns="http://www.w3.org/2000/svg" xmlns:xlink="http://www.w3.org/1999/xlink" x="0px" y="0px"
	 width="27.862px" height="25.951px" viewBox="0 0 27.862 25.951" enable-background="new 0 0 27.862 25.951" xml:space="preserve">
<path fill="#8B5E3C" d="M2.841,13.665c-0.049-0.029-0.094-0.057-0.136-0.084c-1.424-0.939-2.057-2.006-2.453-3.663
	c-0.784-3.28,0.229-6.307,3.504-7.707c1.992-0.852,4.947-0.208,7.06-0.275c2.877-0.091,4.604-1.004,7.263-1.62
	c4.133-0.958,7.803,0.196,9.227,4.387c0.819,2.414,1.006,5.56-1.347,6.939c-2.722,1.596-6.847-0.797-8.973,2.616
	c-2.37,3.805,1.828,7.266-2.64,10.037c-1.5,0.932-7.442,2.288-9.303,1.324c-1.619-0.838-2.055-3.462-1.924-5.084
	c0.069-0.854,0.284-1.899,0.839-2.58c0.514-0.629,1.768-0.701,1.8-1.726C5.796,15.011,3.736,14.195,2.841,13.665z"/>
</svg>
