<?xml version="1.0" encoding="utf-8"?>
<!-- Generator: Adobe Illustrator 16.0.0, SVG Export Plug-In . SVG Version: 6.00 Build 0)  -->
<!DOCTYPE svg PUBLIC "-//W3C//DTD SVG 1.1//EN" "http://www.w3.org/Graphics/SVG/1.1/DTD/svg11.dtd">
<svg version="1.1" id="Layer_1" xmlns="http://www.w3.org/2000/svg" xmlns:xlink="http://www.w3.org/1999/xlink" x="0px" y="0px"
	 width="25.484px" height="22.991px" viewBox="0 0 25.484 22.991" enable-background="new 0 0 25.484 22.991" xml:space="preserve">
<path fill="#8B5E3C" d="M2.309,4.696c0.253-1.075,0.64-3.307,1.676-3.875c2.36-1.294,6.874-0.667,9.449-0.68
	c1.607-0.008,3.781-0.245,5.322,0.31c1.685,0.606,1.529,1.64,1.879,3.261c0.883,4.089,2.649,7.894,3.883,11.875
	c1.792,5.781,1.807,8.154-6.319,7.198c-6.565-0.772-3.614-2.083-8.773-5.55c-2.261-1.52-6.791,0.016-8.425-1.992
	c-0.438-0.539-1.262-2.381-0.92-3.076c0.69-1.409,6.301-1.55,7.867-2.173C6.33,9.162,2.978,8.44,2.311,6.523
	C2.115,5.959,2.158,5.338,2.309,4.696z"/>
</svg>
